Coordinates
version=1
nRows=17
nColumns=40
inDegrees=yes

Units are S.I. units (second, meters, Newtons, ...)
Angles are in degrees.

endheader
time	pelvis_tilt	pelvis_list	pelvis_rotation	pelvis_tx	pelvis_ty	pelvis_tz	hip_flexion_r	hip_adduction_r	hip_rotation_r	knee_angle_r	knee_angle_r_beta	ankle_angle_r	subtalar_angle_r	mtp_angle_r	hip_flexion_l	hip_adduction_l	hip_rotation_l	knee_angle_l	knee_angle_l_beta	ankle_angle_l	subtalar_angle_l	mtp_angle_l	lumbar_extension	lumbar_bending	lumbar_rotation	arm_flex_r	arm_add_r	arm_rot_r	elbow_flex_r	pro_sup_r	wrist_flex_r	wrist_dev_r	arm_flex_l	arm_add_l	arm_rot_l	elbow_flex_l	pro_sup_l	wrist_flex_l	wrist_dev_l
     47.71000000	     -7.35034626	     -8.18702105	      2.33679337	      1.04145710	      0.91704371	      0.47475365	      1.46609310	      8.43874073	    -20.84006716	      5.90712726	      5.90712726	     14.97433099	     12.37884477	     -5.06813764	     37.49015847	    -11.67106431	     -5.60798168	     16.63106560	     16.63106560	      6.69015324	     -5.30875115	     14.38994583	    -12.15688462	      8.60591629	      5.18148213	     46.05748908	    -15.88582133	      4.13385362	     96.66930778	     43.99419570	      0.00000000	      0.00000000	    -19.64175910	     -5.95735601	      0.69477412	     29.59914276	     45.70140056	      0.00000000	      0.00000000
     47.72171429	     -7.49239921	     -8.16983162	      2.12749922	      1.04291829	      0.91563289	      0.47316945	      1.08516850	      8.24672449	    -20.64107399	      6.29022506	      6.29022506	     15.86407470	     12.47709700	     -4.02182984	     36.93270145	    -11.35836675	     -5.74419206	     16.67808067	     16.67808067	      5.12507800	     -6.47089600	     12.45761806	    -11.91419276	      8.56545039	      5.69929070	     45.82971228	    -16.48294027	      3.78991780	    100.98302425	     43.93181885	      0.00000000	      0.00000000	    -20.38231717	     -6.28490981	      1.66893314	     30.61167743	     45.53531532	      0.00000000	      0.00000000
     47.73342857	     -7.57140264	     -8.10695970	      1.94053037	      1.04441447	      0.91431019	      0.47144046	      0.63848565	      7.99968448	    -20.36973959	      6.64345307	      6.64345307	     16.43979656	     12.41756033	     -3.86093147	     36.49842211	    -11.08860818	     -5.91480866	     17.22840847	     17.22840847	      4.23702456	     -7.16946209	     12.02612823	    -11.68339782	      8.51907398	      5.22719344	     46.42850781	    -15.83951350	      3.82986763	    103.10093153	     43.88303108	      0.00000000	      0.00000000	    -20.99158964	     -6.23635817	      1.99601150	     30.55115803	     45.47810923	      0.00000000	      0.00000000
     47.74514286	     -7.65128252	     -8.01851300	      1.72375470	      1.04612894	      0.91307877	      0.46962400	      0.23634896	      7.68576872	    -20.11203972	      7.15345035	      7.15345035	     17.41420581	     12.44982647	     -2.49142375	     35.89132082	    -10.73865554	     -5.66288591	     17.45655413	     17.45655413	      2.22196687	     -8.56237727	      9.32461826	    -11.49206151	      8.38829212	      5.78979362	     46.01394302	    -16.59429042	      3.25732924	    106.95121846	     43.85735058	      0.00000000	      0.00000000	    -21.35512997	     -6.70232803	      3.05962095	     31.46908168	     45.32417011	      0.00000000	      0.00000000
     47.75685714	     -7.72828199	     -7.87036044	      1.57424804	      1.04779456	      0.91196785	      0.46757436	     -0.14830732	      7.29649707	    -19.87959343	      7.63483967	      7.63483967	     17.91144833	     12.27282816	     -2.31946879	     35.57406270	    -10.39952843	     -5.46156782	     18.25135131	     18.25135131	      1.41889283	     -9.29654617	      8.87633907	    -11.25066583	      8.25189366	      5.28346652	     46.30175154	    -16.05368153	      3.37429605	    108.96229742	     43.81035233	      0.00000000	      0.00000000	    -21.73090539	     -6.66608373	      3.33997205	     31.45800727	     45.28235895	      0.00000000	      0.00000000
     47.76857143	     -7.81597715	     -7.66974575	      1.44674578	      1.04943983	      0.91105749	      0.46537807	     -0.45168794	      6.81299538	    -19.63176544	      8.24557990	      8.24557990	     18.44601076	     12.05248254	     -1.92677963	     35.29964759	     -9.98872276	     -5.03175832	     19.03946024	     19.03946024	      0.56749678	    -10.27596365	      8.11358987	    -11.04861063	      8.04806814	      5.08023497	     46.16870722	    -16.09047184	      3.33711117	    111.51460168	     43.75448267	      0.00000000	      0.00000000	    -21.86987868	     -6.79538150	      3.53339874	     31.75486388	     45.25718392	      0.00000000	      0.00000000
     47.78028571	     -7.81274666	     -7.42708332	      1.33329235	      1.05124921	      0.91058565	      0.46303388	     -0.84489712	      6.25807308	    -19.43338840	      8.91631090	      8.91631090	     19.20591488	     11.96396069	     -0.63086226	     34.86958122	     -9.54738158	     -4.56623975	     19.66859800	     19.66859800	     -0.55792471	    -11.43390713	      6.17619564	    -10.96097959	      7.74140456	      5.66625690	     45.23602344	    -17.08245550	      2.45519761	    114.74614688	     43.75256663	      0.00000000	      0.00000000	    -21.54378568	     -7.25285278	      4.24133925	     32.17918895	     45.18267177	      0.00000000	      0.00000000
     47.79200000	     -7.84456315	     -7.16391392	      1.27961532	      1.05290843	      0.91033474	      0.46049510	     -1.06731487	      5.63663063	    -19.23672401	      9.77690614	      9.77690614	     19.54311426	     11.63102811	     -0.46672326	     34.66858119	     -9.11670133	     -4.16571656	     20.61290632	     20.61290632	     -0.66742137	    -12.13511711	      5.76721595	    -10.81258103	      7.47357943	      5.25882240	     44.82678031	    -17.03534427	      2.44764478	    116.57441572	     43.72144932	      0.00000000	      0.00000000	    -21.35678592	     -7.40351675	      4.47857484	     32.20835851	     45.16201118	      0.00000000	      0.00000000
     47.80371429	     -7.83053461	     -6.91193925	      1.26299161	      1.05456103	      0.91052012	      0.45775304	     -1.26014286	      4.98639006	    -19.06619920	     10.77379922	     10.77379922	     19.84807697	     11.27813445	     -0.13185887	     34.43214170	     -8.68302162	     -3.72547133	     21.54044485	     21.54044485	     -0.50849618	    -12.87024717	      5.44095605	    -10.76250041	      7.21569993	      5.48580467	     43.76284462	    -17.76903570	      1.78980097	    119.10745496	     43.71957843	      0.00000000	      0.00000000	    -20.65456228	     -7.73233171	      4.86367139	     32.22851067	     45.14192056	      0.00000000	      0.00000000
     47.81542857	     -7.83552498	     -6.66445165	      1.26607085	      1.05609422	      0.91098362	      0.45484162	     -1.23602630	      4.26915065	    -18.91084879	     12.11193518	     12.11193518	     19.90139916	     10.74374143	     -0.35157386	     34.23553020	     -8.27937384	     -3.43486524	     22.47959263	     22.47959263	     -0.01662946	    -13.36319416	      5.21266403	    -10.66792109	      6.99852797	      4.99664628	     43.04801444	    -17.76529373	      1.79092915	    120.37509396	     43.69215141	      0.00000000	      0.00000000	    -20.19000811	     -7.81949831	      4.93118115	     32.25929841	     45.14585904	      0.00000000	      0.00000000
     47.82714286	     -7.82821311	     -6.40115678	      1.30617419	      1.05760009	      0.91187215	      0.45176791	     -1.08615637	      3.49747551	    -18.69085946	     13.67152352	     13.67152352	     19.66140981	      9.93169418	     -1.06737761	     33.91999048	     -7.81505515	     -3.10236816	     23.23060423	     23.23060423	      0.86907695	    -13.80664988	      5.71674770	    -10.65024930	      6.75000335	      5.37508898	     41.35855437	    -18.83335340	      0.86245004	    122.89247010	     43.69234918	      0.00000000	      0.00000000	    -19.04854534	     -8.08822358	      5.06432751	     32.03704546	     45.16805207	      0.00000000	      0.00000000
     47.83885714	     -7.83988170	     -6.17813171	      1.31861521	      1.05896785	      0.91297226	      0.44862326	     -0.60342023	      2.65949720	    -18.48152204	     15.80723173	     15.80723173	     19.36956423	      8.97686653	     -1.76525134	     33.54017851	     -7.43342221	     -2.99527957	     23.81071064	     23.81071064	      1.63364377	    -14.06154434	      5.61460907	    -10.56895758	      6.56139788	      4.94205035	     40.19145140	    -19.01414431	      0.83241422	    123.76265549	     43.67621759	      0.00000000	      0.00000000	    -18.24156281	     -8.25124414	      5.04888644	     32.10861974	     45.18919789	      0.00000000	      0.00000000
     47.85057143	     -7.83806909	     -6.01561783	      1.32829526	      1.06022882	      0.91438618	      0.44548633	      0.01818252	      1.90862352	    -17.95859333	     18.09158013	     18.09158013	     18.23523803	      7.33586604	     -4.11179046	     33.07409932	     -7.09237944	     -2.89777591	     24.26096434	     24.26096434	      2.72823093	    -14.26289066	      6.40256029	    -10.60348382	      6.44501448	      5.38343081	     38.01883794	    -20.09807627	     -0.23444824	    125.84181727	     43.68850932	      0.00000000	      0.00000000	    -16.76579705	     -8.45899587	      4.90247589	     31.84247215	     45.25466312	      0.00000000	      0.00000000
     47.86228571	     -7.80553677	     -5.81295732	      1.29767667	      1.06145349	      0.91592891	      0.44232338	      1.00111670	      0.94420117	    -17.65903182	     21.17768526	     21.17768526	     17.47687433	      5.94966033	     -5.08333728	     32.43354847	     -6.76579150	     -3.05048801	     24.48071982	     24.48071982	      3.53995522	    -14.26528464	      6.16499790	    -10.57627324	      6.29659800	      4.92042491	     36.52986947	    -20.22217978	     -0.15447448	    126.02972872	     43.68207346	      0.00000000	      0.00000000	    -15.90487995	     -8.59555835	      4.81672344	     32.02015491	     45.28390788	      0.00000000	      0.00000000
     47.87400000	     -7.79387378	     -5.69014963	      1.26798547	      1.06245458	      0.91745570	      0.43934770	      2.34133327	      0.05543164	    -17.13955943	     24.77483659	     24.77483659	     16.35932005	      4.00121281	     -6.33364939	     31.73252493	     -6.51225158	     -3.20580515	     24.50800354	     24.50800354	      4.30707307	    -14.22942446	      6.00402460	    -10.52367121	      6.19720779	      4.63411857	     34.73659216	    -20.59081121	     -0.20397832	    126.28756291	     43.67668175	      0.00000000	      0.00000000	    -14.88622764	     -8.76539214	      4.61519299	     32.30574008	     45.33137393	      0.00000000	      0.00000000
     47.88571429	     -7.88666943	     -5.59797049	      1.21058885	      1.06316003	      0.91883559	      0.43644800	      4.10127997	     -0.75192919	    -16.26399855	     28.73425283	     28.73425283	     14.67085275	      1.33623006	     -7.98490772	     31.10168187	     -6.29494276	     -3.40382716	     24.42149589	     24.42149589	      4.98425017	    -14.08009274	      5.88226796	    -10.44377203	      6.20179515	      4.58036668	     32.60966676	    -21.16861596	     -0.55318584	    126.57793045	     43.68240549	      0.00000000	      0.00000000	    -13.71582354	     -8.96008898	      4.25410979	     32.68024925	     45.40401315	      0.00000000	      0.00000000
     47.89742857	     -7.81180949	     -5.56054583	      1.14895410	      1.06388505	      0.92031635	      0.43388434	      5.67699927	     -1.34112598	    -15.22666815	     32.33762408	     32.33762408	     10.96309719	     -2.60313947	    -14.28543086	     30.29776163	     -6.18551025	     -3.66833347	     24.36773475	     24.36773475	      5.76821800	    -13.76319067	      5.79477594	    -10.57291605	      6.15556562	      5.21466950	     29.58354980	    -21.84325207	     -2.29981483	    127.49637443	     43.78131436	      0.00000000	      0.00000000	    -11.83800323	     -9.04579775	      2.99475325	     32.49738684	     45.63172662	      0.00000000	      0.00000000
